<svg width="16" height="13" viewBox="0 0 16 13" fill="none" xmlns="http://www.w3.org/2000/svg">
<path d="M6.23415 8.8991H6.24082M14.1986 6.24116H0.936201M3.56727 8.8991H3.57394M1.04174 5.95073C0.948802 6.13612 0.900405 6.34063 0.900391 6.548V10.2323C0.900391 10.5859 1.04088 10.925 1.29095 11.175C1.54101 11.425 1.88018 11.5655 2.23383 11.5655H12.9014C13.255 11.5655 13.5942 11.425 13.8442 11.175C14.0943 10.925 14.2348 10.5859 14.2348 10.2323V6.548C14.2348 6.34063 14.1864 6.13612 14.0934 5.95073L11.9346 1.63983C11.8242 1.41771 11.654 1.23078 11.4432 1.10007C11.2324 0.969354 10.9893 0.900034 10.7412 0.899902H4.394C4.14593 0.900034 3.90281 0.969354 3.69198 1.10007C3.48115 1.23078 3.31097 1.41771 3.20057 1.63983L1.04174 5.95073Z" stroke="#CC0301" stroke-width="1.8" stroke-linecap="round"/>
</svg>
